<svg width="11" height="11" viewBox="0 0 11 11" fill="none" xmlns="http://www.w3.org/2000/svg">
<path d="M5.49887 2.47607C4.51048 2.47607 3.70635 3.2802 3.70635 4.26859H4.42336C4.42336 3.67563 4.9059 3.19308 5.49887 3.19308C6.09183 3.19308 6.57438 3.67563 6.57438 4.26859C6.57438 4.65183 6.41162 4.7938 6.04344 5.07702C5.90649 5.18242 5.75197 5.30144 5.60391 5.44914C5.13355 5.91914 5.13857 6.38268 5.14037 6.41961V7.13662H5.85737V6.41638C5.85737 6.40778 5.86562 6.20092 6.11083 5.95607C6.22555 5.84134 6.35533 5.74168 6.48045 5.64524C6.86046 5.3527 7.29139 5.02145 7.29139 4.26859C7.29139 3.2802 6.48726 2.47607 5.49887 2.47607ZM5.14037 7.49512H5.85737V8.21213H5.14037V7.49512Z" fill="#999999"/>
<circle cx="5.49887" cy="5.34412" r="4.8097" stroke="#999999" stroke-width="1.06882"/>
</svg>
